<svg width="82" height="32" viewBox="0 0 82 32" fill="none" xmlns="http://www.w3.org/2000/svg">
<path d="M52.0146 13.9699C52.0146 16.5194 52.7131 18.8942 53.9006 20.9548C56.3104 25.1458 60.8157 27.9397 65.9845 27.9397C71.1534 27.9397 75.6586 25.1458 78.0684 20.9548C79.2559 18.8942 79.9544 16.5194 79.9544 13.9699C79.9544 11.4204 79.2559 9.04549 78.0684 6.98493C75.6586 2.79397 71.1534 0 65.9845 0C58.2662 0 52.0146 6.25151 52.0146 13.9699Z" fill="#DCE5F4"/>
<path d="M0.00800323 32.0002L81.7363 31.7632L81.7286 29.0963L0.000269547 29.3333L0.00800323 32.0002Z" fill="#242539"/>
<path d="M68.035 22.5795H65.3682V25.2463H68.035V22.5795Z" fill="#242539"/>
<path d="M20.0321 22.5795H17.3652V25.2463H20.0321V22.5795Z" fill="#242539"/>
<path d="M18.6932 30.5802C20.7986 30.5802 22.7708 29.5735 24.0162 27.9134H28.2685H30.9873H50.0166H55.0769H61.3746C62.6214 29.5735 64.5935 30.5802 66.6977 30.5802C68.8031 30.5802 70.7766 29.5735 72.0207 27.9134H76.0303H76.933H78.6971V25.2465H77.9997L80.3239 19.4368L70.0299 12.091C68.3164 11.1016 66.2416 10.5789 64.0295 10.5789C62.8667 10.5789 61.7347 10.7482 60.6546 11.0683C56.645 6.58529 51.0073 3.91177 45.3616 3.91177C40.2439 3.91177 31.974 7.264 30.4259 7.91204H30.3126H27.4924H26.1416L22.8201 11.2336C19.6346 10.1842 15.9556 10.4229 12.8968 11.9123H12.8514L11.518 9.24546H13.3595V6.57862H6.69236V9.24546H8.53515L9.86857 11.9123H7.03372L2.2334 27.9134H13.3701C14.6169 29.5735 16.589 30.5802 18.6932 30.5802ZM22.1507 25.9146C21.4427 27.1467 20.1172 27.9134 18.6932 27.9134C17.2691 27.9134 15.9436 27.148 15.2343 25.9146C14.8742 25.2905 14.6929 24.6172 14.6929 23.9131C14.6929 23.2091 14.8756 22.5357 15.2356 21.9116C15.9436 20.6796 17.2691 19.9128 18.6932 19.9128C20.8986 19.9128 22.6934 21.7076 22.6934 23.9131C22.6934 24.6172 22.5107 25.2905 22.1507 25.9146ZM55.5369 23.8518C55.4263 24.0224 55.3116 24.1825 55.1916 24.3331C55.0942 24.4571 54.9942 24.5758 54.8889 24.6865C54.7595 24.8225 54.6235 24.9452 54.4849 25.0612C54.4075 25.1265 54.3288 25.1865 54.2488 25.2452H30.4539L29.6832 21.3956L32.2074 21.617V21.6183L32.9154 21.6796L35.1156 21.873L35.1142 21.8703L55.2436 23.6144L55.6556 23.6504C55.6169 23.7184 55.5783 23.7878 55.5369 23.8518ZM70.1539 25.9159C69.4472 27.148 68.1218 27.9134 66.6963 27.9134C65.2736 27.9134 63.9468 27.148 63.2374 25.9146C62.8774 25.2905 62.6961 24.6172 62.6961 23.9131C62.6961 21.7076 64.4909 19.9128 66.6963 19.9128C68.1204 19.9128 69.4458 20.6782 70.1552 21.9116C70.5153 22.5357 70.6966 23.2091 70.6966 23.9131C70.6966 24.6172 70.5139 25.2905 70.1539 25.9159ZM58.1464 24.6758C58.2064 24.5651 58.2704 24.4598 58.3278 24.3451C58.3998 24.2011 58.4665 24.0518 58.5345 23.8998L58.9212 22.949C58.9238 22.9437 58.9251 22.937 58.9265 22.9304C58.9278 22.9277 58.9292 22.925 58.9292 22.9224L59.4039 21.2969C59.4039 21.2969 59.4039 21.2956 59.4039 21.2943C59.4745 20.9969 59.5425 20.7009 59.5999 20.3969C59.6305 20.2342 59.6572 20.0742 59.6852 19.9115C59.7332 19.6235 59.7772 19.3381 59.8159 19.0501C59.8372 18.8874 59.8585 18.7274 59.8772 18.5647C59.9105 18.2701 59.9385 17.9807 59.9639 17.6914C59.9759 17.546 59.9906 17.402 60.0012 17.2593C60.0252 16.926 60.0426 16.6033 60.0572 16.2859C60.0612 16.2019 60.0666 16.1153 60.0706 16.0326C60.0852 15.6406 60.0932 15.2672 60.0972 14.9165C60.0986 14.7898 60.0972 14.6832 60.0972 14.5632C60.0972 14.3938 60.0986 14.2165 60.0972 14.0618C60.1319 14.0511 60.1452 14.0458 60.1772 14.0364C60.3292 13.9884 60.4492 13.9498 60.5373 13.9191C60.5479 13.9151 60.5586 13.9124 60.5679 13.9084C60.6599 13.8764 60.7213 13.8551 60.7279 13.8524L60.7426 13.8471C63.3588 12.839 66.603 13.1937 68.5925 14.3298L77.0743 20.3875L75.1316 25.2465H73.2301C73.2408 25.1972 73.2368 25.1452 73.2461 25.0958C73.3181 24.7052 73.3674 24.3105 73.3674 23.9131C73.3674 22.753 73.0568 21.601 72.47 20.5822C71.2833 18.5234 69.0725 17.246 66.6963 17.246C63.0201 17.246 60.0292 20.2369 60.0292 23.9131C60.0292 24.3105 60.0786 24.7052 60.1506 25.0958C60.1599 25.1452 60.1559 25.1959 60.1666 25.2465H57.8344C57.9464 25.0679 58.0424 24.8665 58.1464 24.6758ZM45.3616 6.57862C49.8659 6.57862 54.3942 8.54408 57.8224 11.9163L57.3624 12.0336V12.035C57.2037 12.0737 57.0424 12.1123 56.8624 12.1537C56.7263 12.1843 56.5743 12.2163 56.4263 12.2483C56.2196 12.2923 56.0036 12.3377 55.7756 12.3817C55.6023 12.4163 55.4183 12.4497 55.2329 12.4843C54.9929 12.5283 54.7409 12.571 54.4809 12.615C54.2795 12.6484 54.0715 12.6817 53.8582 12.7137C53.5781 12.7564 53.2834 12.7964 52.9848 12.835C52.7621 12.8644 52.5407 12.8937 52.3074 12.9204C51.9807 12.959 51.6353 12.991 51.2886 13.0244C51.0566 13.0457 50.8286 13.0697 50.5873 13.0897C50.1912 13.1204 49.7752 13.1444 49.3578 13.1671C49.1418 13.1791 48.9338 13.1951 48.7125 13.2044C48.0618 13.2311 47.3911 13.2471 46.695 13.2471C46.1136 13.2471 45.5349 13.2097 44.9589 13.1564C44.7869 13.1404 44.6162 13.1191 44.4455 13.0991C44.0242 13.0497 43.6055 12.9884 43.1894 12.915C43.0254 12.8857 42.8601 12.859 42.6974 12.827C42.1467 12.7177 41.6013 12.5964 41.0706 12.4563C41.0573 12.4523 41.0453 12.4483 41.032 12.4443C40.5053 12.3043 39.9932 12.147 39.4919 11.9816C39.3359 11.931 39.1852 11.8776 39.0318 11.8256C38.6638 11.699 38.3038 11.5683 37.9531 11.4336C37.8118 11.3789 37.6677 11.3256 37.5304 11.2709C37.073 11.0883 36.6263 10.9029 36.2076 10.7149C36.1796 10.7016 36.1543 10.6896 36.1276 10.6776C35.7276 10.4975 35.3503 10.3175 34.9902 10.1415C34.8689 10.0815 34.7542 10.0242 34.6382 9.96551C34.3755 9.8335 34.1248 9.70416 33.8915 9.57882C33.8315 9.54682 33.7715 9.51481 33.7141 9.48415C36.781 8.3294 41.9934 6.57862 45.3616 6.57862ZM31.4887 11.3056C31.5047 11.3149 31.5233 11.3256 31.5393 11.3336C31.73 11.4443 31.938 11.5616 32.1594 11.683C32.2341 11.7243 32.3101 11.7656 32.3874 11.807C32.5701 11.9056 32.7621 12.0083 32.9621 12.1123C33.0488 12.1577 33.1328 12.2017 33.2234 12.2483C33.5088 12.395 33.8062 12.5443 34.1222 12.695C34.1462 12.707 34.1742 12.719 34.1982 12.731C34.4902 12.871 34.7942 13.011 35.1089 13.1511C35.2129 13.1977 35.3209 13.2444 35.4276 13.2911C35.6849 13.4031 35.9503 13.5151 36.221 13.6258C36.333 13.6711 36.4423 13.7178 36.557 13.7631C36.9344 13.9138 37.3197 14.0618 37.7197 14.2058C37.7371 14.2125 37.7544 14.2178 37.7718 14.2231C38.1518 14.3591 38.5438 14.4885 38.9412 14.6138C39.0652 14.6525 39.1892 14.6898 39.3145 14.7272C39.6279 14.8218 39.9466 14.9125 40.2692 14.9992C40.3986 15.0338 40.5266 15.0685 40.6559 15.1019C41.0973 15.2139 41.544 15.3205 42 15.4125C42.0107 15.4152 42.0214 15.4165 42.032 15.4179C42.4734 15.5072 42.9214 15.5832 43.3735 15.6499C43.5108 15.6699 43.6481 15.6872 43.7855 15.7046C44.1322 15.7499 44.4802 15.7872 44.8309 15.8179C44.9722 15.8299 45.1122 15.8432 45.2536 15.8526C45.7309 15.8846 46.211 15.9072 46.6937 15.9072C47.3711 15.9072 48.0231 15.8912 48.6591 15.8672C48.8592 15.8606 49.0512 15.8486 49.2472 15.8392C49.6845 15.8179 50.1112 15.7939 50.5259 15.7632C50.7273 15.7486 50.926 15.7339 51.122 15.7166C51.538 15.6806 51.9394 15.6419 52.3301 15.5992C52.4834 15.5819 52.6421 15.5672 52.7927 15.5499C53.3048 15.4885 53.7955 15.4232 54.2608 15.3525C54.4075 15.3312 54.5382 15.3072 54.6795 15.2845C55.0009 15.2325 55.3142 15.1819 55.6116 15.1272C55.7916 15.0939 55.961 15.0618 56.1316 15.0285C56.369 14.9818 56.5957 14.9365 56.8143 14.8898C56.977 14.8552 57.1357 14.8218 57.2877 14.7885C57.3317 14.7792 57.3824 14.7685 57.425 14.7592C57.425 14.7912 57.4237 14.8258 57.4237 14.8592C57.4197 15.2285 57.4104 15.6326 57.3931 16.0592C57.3904 16.1179 57.389 16.1753 57.3864 16.2353C57.365 16.6966 57.3317 17.1833 57.2864 17.6794C57.2797 17.7447 57.273 17.8114 57.2664 17.878C57.2197 18.3527 57.1584 18.8354 57.0824 19.3128C57.073 19.3741 57.0637 19.4368 57.053 19.4981C56.9677 20.0022 56.8637 20.4982 56.7383 20.9742C56.7303 21.0036 56.7223 21.0316 56.7143 21.0596L34.1608 19.1008L32.2674 13.5991L31.4753 11.2949C31.482 11.3016 31.4847 11.3043 31.4887 11.3056ZM12.1474 25.0958C12.1567 25.1452 12.1527 25.1959 12.1634 25.2465H5.81764L9.01785 14.5792H13.5381L13.8288 14.4285C16.5103 13.0324 19.8932 12.8857 22.6561 14.0124L23.4761 14.3471L27.2457 10.5776H28.4085L29.8926 14.8872L31.2567 18.8528L26.371 18.4287L27.7338 25.2465H25.2229C25.2336 25.1972 25.2296 25.1452 25.2389 25.0958C25.3109 24.7052 25.3603 24.3105 25.3603 23.9131C25.3603 20.2369 22.3694 17.246 18.6932 17.246C16.3183 17.246 14.1075 18.5234 12.9248 20.5809C12.3381 21.601 12.026 22.753 12.026 23.9131C12.026 24.3105 12.0754 24.7052 12.1474 25.0958Z" fill="#242539"/>
</svg>
