<svg width="57" height="51" viewBox="0 0 57 51" fill="none" xmlns="http://www.w3.org/2000/svg">
<circle cx="41.2404" cy="35.574" r="15.4259" fill="#DCE5F4"/>
<path d="M42.5997 30.427L36.9794 0H29.9572V2.62488H34.8004L38.5604 22.9805L33.8827 31.5771H12.0923C11.1538 30.8515 9.97915 30.4183 8.70483 30.4183C5.6407 30.4184 3.14795 32.9164 3.14795 35.9869C3.14795 39.0574 5.6407 41.5555 8.70483 41.5555C10.3796 41.5555 11.8824 40.8082 12.902 39.6301H32.4842L39.3165 27.0737L40.0244 30.9063C38.0894 31.7781 36.7379 33.7268 36.7379 35.9869C36.7379 39.0574 39.2307 41.5555 42.2948 41.5555C45.3588 41.5555 47.8516 39.0574 47.8516 35.9869C47.8516 33.019 45.5224 30.5863 42.5997 30.427ZM8.70483 38.9307C7.08502 38.9307 5.76731 37.6101 5.76731 35.9869C5.76731 34.3637 7.08502 33.0431 8.70483 33.0431C10.3246 33.0431 11.6424 34.3637 11.6424 35.9869C11.6423 37.6101 10.3246 38.9307 8.70483 38.9307ZM14.1669 37.0052C14.2281 36.6748 14.2616 36.3348 14.2616 35.9869C14.2616 35.3626 14.157 34.7627 13.9671 34.202H32.4543L30.9289 37.0052H14.1669ZM42.2948 38.9307C40.675 38.9307 39.3572 37.6101 39.3572 35.9869C39.3572 34.3637 40.675 33.0431 42.2948 33.0431C43.9145 33.0431 45.2323 34.3637 45.2323 35.9869C45.2323 37.6101 43.9145 38.9307 42.2948 38.9307Z" fill="black"/>
<path d="M0.00414665 43.7781L50.4473 43.5925L50.4432 40.9913L7.53005e-05 41.177L0.00414665 43.7781Z" fill="black"/>
</svg>
