<svg width="86" height="56" viewBox="0 0 86 56" fill="none" xmlns="http://www.w3.org/2000/svg">
<rect width="86" height="56" fill="#2F43D7"/>
<path d="M52.4929 17.5555L56.0763 15.4653L60.5554 24.4236L62.3471 31.5902L54.8818 36.368L56.0763 26.8125L53.986 22.0347H52.1943L52.4929 17.5555Z" fill="#2F43D7"/>
<path d="M10.3887 24.9186C10.3887 28.0062 11.2346 30.8823 12.6727 33.3778C15.5911 38.4534 21.0474 41.8371 27.3072 41.8371C33.5671 41.8371 39.0233 38.4534 41.9418 33.3778C43.3798 30.8823 44.2258 28.0062 44.2258 24.9186C44.2258 21.8309 43.3798 18.9548 41.9418 16.4593C39.0233 11.3837 33.5671 8 27.3072 8C17.9597 8 10.3887 15.5711 10.3887 24.9186Z" fill="#192BAB"/>
<path d="M22.3745 45.7382C26.0375 45.7382 29.0069 42.7687 29.0069 39.1058C29.0069 35.4429 26.0375 32.4734 22.3745 32.4734C18.7116 32.4734 15.7422 35.4429 15.7422 39.1058C15.7422 42.7687 18.7116 45.7382 22.3745 45.7382Z" fill="#2F43D7"/>
<path d="M66.5904 45.7382C70.2533 45.7382 73.2227 42.7687 73.2227 39.1058C73.2227 35.4429 70.2533 32.4734 66.5904 32.4734C62.9274 32.4734 59.958 35.4429 59.958 39.1058C59.958 42.7687 62.9274 45.7382 66.5904 45.7382Z" fill="#2F43D7"/>
<path d="M44.4819 22.5248C44.6721 22.0871 44.839 21.6881 44.9849 21.3222C45.2756 20.5915 45.4779 19.9979 45.5984 19.5182C45.6581 19.2783 45.6979 19.0672 45.7178 18.8815C45.7377 18.6958 45.7366 18.5355 45.7167 18.3984C45.657 17.9861 45.4237 17.7761 45.0357 17.6899C44.7771 17.6324 44.4488 17.6291 44.0564 17.6567C43.8607 17.6711 43.6485 17.6921 43.4219 17.7186C42.9676 17.7717 42.4524 17.8435 41.8821 17.9109C41.0243 18.0126 40.0427 18.1033 38.955 18.1033C33.1517 18.1033 30.753 16.0251 27.9011 16.9979C25.0491 17.9706 23.4795 20.3141 23.4795 20.3141C23.4795 20.3141 32.5105 24.2271 44.4819 22.5248Z" fill="#192BAB"/>
<path d="M28.9409 40.0012L33.4288 39.1058C32.854 38.2989 32.2128 37.5583 31.5054 36.895H22.3748C21.1589 36.895 20.1641 37.8899 20.1641 39.1058C20.1641 40.3217 21.1589 41.3166 22.3748 41.3166L28.9409 40.0012Z" fill="#2F43D7"/>
<path d="M18.9699 25.7305L23.4799 20.3141H14.6367L18.9699 25.7305Z" fill="#192BAB"/>
<path d="M61.0632 14.7871V9.26013H59.4051C58.0454 9.26013 56.8627 10.1666 56.6416 11.4709C56.7742 11.7583 57.338 12.8969 58.0012 14.4002C58.4102 14.6434 58.8966 14.7871 59.4051 14.7871H61.0632Z" fill="#2F43D7"/>
<path d="M8.00568 48.0138L78.0137 47.8458L78.0084 45.635L8.00038 45.8031L8.00568 48.0138Z" fill="white"/>
<path d="M16.4844 34.1193C15.3392 35.4756 14.6539 37.2199 14.6539 39.1057C14.6539 43.3714 18.1248 46.8435 22.3916 46.8435C25.9775 46.8435 29.0715 44.3563 29.9006 40.9429L33.5594 40.2111H47.0341L62.0078 30.5854L62.7395 32.4148C60.4304 33.7556 58.8696 36.2494 58.8696 39.1068C58.8696 43.3725 62.3405 46.8446 66.6073 46.8446C70.8741 46.8446 74.345 43.3725 74.345 39.1068C74.345 34.8411 70.8741 31.3691 66.6073 31.3691C65.9816 31.3691 65.3759 31.452 64.7922 31.5935L64.2605 30.2637H66.6073C69.6162 30.2637 71.744 31.169 73.5116 33.1996L75.1796 31.7482C72.299 28.4354 68.9076 28.0518 66.6084 28.0518H63.3773L63.227 27.6771C62.9562 24.1663 61.4186 19.6674 59.8556 15.8925H62.1857V8.15475H59.4222C57.6768 8.15475 56.1923 9.24246 55.6993 10.7989L53.829 8L48.6524 9.29441L49.1885 11.4378L52.8551 10.5214L53.9318 12.1342L51.1307 14.2344V20.3141H53.7881C54.6978 22.1048 55.1764 24.0945 55.1764 26.1063C55.1764 28.725 54.3728 31.5382 53.0585 33.5788H45.1881C44.5779 32.1672 43.2725 28.1203 45.5109 22.9648L46.299 21.1508L46.2471 21.1586C46.9236 19.3369 47.0783 18.1519 46.4593 17.3284C45.6944 16.3103 44.3922 16.4772 42.5882 16.7105C41.5956 16.8376 40.3598 16.9968 38.9714 16.9968C36.3295 16.9968 34.4658 16.5546 32.8221 16.1633C30.9606 15.7201 29.3512 15.3398 27.5604 15.9511C25.1927 16.758 23.6241 18.3885 22.9499 19.2076H12.3525L17.5589 25.7161L11.7655 32.6745L9.62988 35.0954L16.4844 34.1193ZM63.5719 34.4951L64.4253 36.6285C63.7355 37.2365 63.2911 38.1164 63.2911 39.1057C63.2911 40.934 64.779 42.4219 66.6073 42.4219C68.4356 42.4219 69.9235 40.934 69.9235 39.1057C69.9235 37.2774 68.4356 35.7895 66.6073 35.7895C66.562 35.7895 66.5211 35.8006 66.4757 35.8028L65.6257 33.6782C65.9452 33.6208 66.2701 33.5788 66.6062 33.5788C69.6538 33.5788 72.1331 36.0582 72.1331 39.1057C72.1331 42.1533 69.6538 44.6327 66.6062 44.6327C63.5586 44.6327 61.0792 42.1533 61.0792 39.1057C61.0803 37.1801 62.0741 35.4845 63.5719 34.4951ZM65.5019 39.1057C65.5019 38.4955 65.9982 38.0003 66.6073 38.0003C67.2164 38.0003 67.7127 38.4955 67.7127 39.1057C67.7127 39.7159 67.2164 40.2111 66.6073 40.2111C65.9982 40.2111 65.5019 39.7159 65.5019 39.1057ZM59.4222 10.3655H59.9749V13.6817H59.4222C59.2321 13.6817 59.0431 13.6486 58.8651 13.5833C58.8419 13.5314 58.8209 13.4872 58.7988 13.4363C58.3788 12.5 58.0306 11.7672 57.8382 11.3615L57.836 11.3571C58.0748 10.7679 58.6971 10.3655 59.4222 10.3655ZM55.0891 18.1033H53.3426V15.3398L56.2409 13.1666C56.462 13.6364 56.7229 14.2012 57.007 14.8468C58.5081 18.2547 61.014 24.5256 61.0792 28.5548L56.4786 31.5117C57.0656 29.7928 57.3883 27.928 57.3883 26.1063C57.3883 23.4998 56.703 20.9242 55.4075 18.6593L55.0891 18.1033ZM22.3916 44.6327C19.3441 44.6327 16.8647 42.1533 16.8647 39.1057C16.8647 36.4727 18.7173 34.2155 21.2862 33.6926C21.5007 33.6981 21.7151 33.7158 21.9307 33.7324C22.0456 33.7413 22.1595 33.7435 22.2745 33.7556C22.542 33.7833 22.8084 33.8253 23.0748 33.8684C23.3356 33.9115 23.5976 33.9645 23.8596 34.0231C24.0088 34.0563 24.158 34.0828 24.3062 34.1215C24.4421 34.1569 24.5792 34.2033 24.7163 34.2431C24.9174 34.3017 25.1197 34.357 25.3209 34.4244C25.9035 34.7903 26.4086 35.2545 26.8121 35.7895H22.3916C20.5633 35.7895 19.0755 37.2774 19.0755 39.1057C19.0755 40.934 20.5633 42.4219 22.3916 42.4219H22.5011L27.3979 41.4436C26.5125 43.3394 24.5792 44.6327 22.3916 44.6327ZM30.2576 38.616L22.301 40.2089C21.7339 40.1625 21.2873 39.6849 21.2873 39.1068C21.2873 38.4966 21.7837 38.0014 22.3927 38.0014H30.1902H31.0557C31.1806 38.1263 31.3033 38.2535 31.4238 38.3839L30.2576 38.616ZM28.2756 18.0436C29.4639 17.6379 30.597 17.9076 32.3125 18.3155C33.9872 18.7123 36.072 19.2087 38.9725 19.2087C40.5035 19.2087 41.8167 19.0406 42.8712 18.9047C43.5002 18.824 44.253 18.7356 44.6432 18.7455C44.6144 19.0738 44.4365 19.82 43.7345 21.5013C43.2857 21.5587 42.8358 21.6151 42.3959 21.656C42.3263 21.6626 42.2544 21.6726 42.1848 21.6792C41.5724 21.7334 40.9711 21.7699 40.3786 21.7964C40.1707 21.8063 39.9662 21.8108 39.7606 21.8174C39.3627 21.8296 38.9692 21.8373 38.5823 21.8384C38.3667 21.8395 38.149 21.8406 37.9368 21.8384C37.499 21.8329 37.0701 21.8207 36.6468 21.803C36.4334 21.7942 36.2223 21.7842 36.0134 21.7732C35.5911 21.75 35.1755 21.7212 34.7698 21.687C34.5487 21.6682 34.3332 21.6461 34.1165 21.6251C33.8203 21.5952 33.5284 21.5643 33.2433 21.53C33.0343 21.5046 32.8243 21.4802 32.6209 21.4526C32.2794 21.4062 31.9488 21.3576 31.6239 21.3056C31.3884 21.268 31.1596 21.2304 30.933 21.1906C30.6367 21.1387 30.3438 21.0867 30.0642 21.0315C29.8851 20.9961 29.7126 20.9607 29.5402 20.9242C29.3059 20.8756 29.077 20.8259 28.8549 20.775C28.7012 20.7407 28.5453 20.7054 28.3972 20.6711C28.0921 20.5981 27.7981 20.5252 27.5206 20.4533C27.4013 20.4224 27.2896 20.3914 27.1747 20.3605C26.9492 20.2997 26.7303 20.2389 26.5258 20.1792C26.4108 20.146 26.3025 20.1129 26.1942 20.0808C26.0284 20.0311 25.8714 19.9824 25.7222 19.9349C25.6293 19.9051 25.5332 19.8752 25.448 19.8476C25.427 19.841 25.4105 19.8354 25.3906 19.8277C26.0449 19.2065 27.0188 18.4725 28.2756 18.0436ZM23.8353 21.635C24.074 21.7234 24.378 21.8296 24.7185 21.9423C24.7948 21.9677 24.8611 21.9909 24.9418 22.0175C25.0258 22.0451 25.1219 22.0738 25.2115 22.1015C25.3629 22.149 25.511 22.1965 25.6769 22.2463C25.7509 22.2684 25.8338 22.2916 25.9101 22.3137C26.1069 22.3712 26.3036 22.4287 26.5181 22.4884C26.5965 22.5105 26.6828 22.5315 26.7635 22.5536C26.9878 22.6144 27.2156 22.6741 27.4587 22.736C27.5494 22.7592 27.6478 22.7813 27.7406 22.8034C27.9871 22.8631 28.2358 22.9228 28.4989 22.9825C28.6006 23.0046 28.7089 23.0267 28.8128 23.0488C29.0804 23.1063 29.349 23.1638 29.6319 23.219C29.7458 23.2411 29.8663 23.2621 29.9824 23.2842C30.2675 23.3373 30.5549 23.3904 30.8545 23.4412C30.9805 23.4622 31.111 23.481 31.2392 23.5009C31.5421 23.5484 31.846 23.596 32.1622 23.6391C32.3004 23.6579 32.443 23.6745 32.5833 23.6921C32.8995 23.7319 33.2167 23.7717 33.545 23.8071C33.6998 23.8237 33.8601 23.8369 34.017 23.8524C34.342 23.8834 34.6681 23.9132 35.0041 23.9375C35.1755 23.9497 35.3523 23.9596 35.527 23.9707C35.8575 23.9917 36.1902 24.0105 36.5307 24.0238C36.7219 24.0315 36.9165 24.0359 37.1099 24.0414C37.4449 24.0503 37.7798 24.058 38.1236 24.0591C38.2009 24.0591 38.2739 24.0636 38.3524 24.0636C38.5104 24.0636 38.6752 24.0569 38.8354 24.0558C39.1085 24.0525 39.3815 24.0503 39.6601 24.0425C39.9265 24.0348 40.1984 24.0204 40.4692 24.0083C40.7334 23.9961 40.9965 23.9851 41.264 23.9685C41.589 23.9475 41.9206 23.9176 42.2511 23.8889C42.4434 23.8723 42.6302 23.8624 42.8237 23.8425C41.4541 28.1447 42.1505 31.6377 42.8193 33.581H41.1988C41.1346 32.0566 40.7002 29.753 38.9239 27.8429C37.4869 26.2987 35.4629 25.3237 32.8873 24.9335C32.0284 24.8031 31.1087 24.7378 30.1283 24.7378C29.5181 24.7378 28.9245 24.7644 28.3408 24.8075C28.1529 24.8207 27.9716 24.844 27.7859 24.8616C27.3924 24.8992 27.0033 24.9412 26.6231 24.9965C26.4175 25.0263 26.2163 25.0606 26.0151 25.0949C25.6614 25.1546 25.3132 25.2209 24.9716 25.2938C24.7782 25.3359 24.5847 25.3768 24.3946 25.4232C24.0409 25.5083 23.696 25.6011 23.3555 25.6984C23.1975 25.7437 23.0361 25.7858 22.8813 25.8333C22.4314 25.9715 21.9937 26.1196 21.5681 26.2765C21.535 26.2887 21.4985 26.2998 21.4653 26.3119C20.9955 26.4877 20.5434 26.6745 20.1046 26.8679C20.0029 26.9132 19.9067 26.9597 19.8072 27.0061C19.5651 27.1166 19.3186 27.2261 19.0865 27.3399L23.8353 21.635ZM16.9542 21.4195H21.1392L19.0047 23.9829L16.9542 21.4195ZM15.8466 31.9538C15.8676 31.9373 15.8908 31.9207 15.9118 31.9041C16.1196 31.7438 16.3429 31.5791 16.574 31.4122C16.6347 31.3691 16.6955 31.3249 16.7574 31.2818C17.2814 30.9115 17.8617 30.5345 18.4951 30.162C18.5736 30.1156 18.6532 30.0702 18.7328 30.0249C19.0147 29.8635 19.3076 29.7033 19.6094 29.5463C19.658 29.5209 19.7044 29.4943 19.7542 29.4689C20.0979 29.2932 20.4572 29.1229 20.8275 28.9571C20.917 28.9173 21.0099 28.8775 21.1016 28.8377C21.4134 28.7029 21.7328 28.5724 22.0611 28.4464C22.1473 28.4133 22.2313 28.379 22.3198 28.3469C22.7199 28.1988 23.1322 28.0606 23.5556 27.9302C23.6451 27.9026 23.7391 27.8783 23.8297 27.8517C24.1857 27.7478 24.5494 27.6516 24.9208 27.5632C25.0346 27.5356 25.1474 27.508 25.2623 27.4825C25.7178 27.3819 26.1831 27.2902 26.6618 27.2161C26.7325 27.2051 26.8055 27.1973 26.8773 27.1874C27.2951 27.1266 27.7229 27.078 28.1574 27.0393C28.2922 27.0271 28.4282 27.0161 28.5652 27.0061C29.077 26.9707 29.5955 26.9453 30.1305 26.9453C33.4113 26.9453 35.8255 27.7522 37.3067 29.3451C39.0245 31.1933 39.0499 33.5998 38.9802 34.5482L38.9725 35.7895H46.4339H49.8252L46.3864 38.0003H34.0038C33.8634 37.8168 33.7119 37.6477 33.5649 37.472C33.4688 37.357 33.377 37.2387 33.2786 37.1271C32.9592 36.7645 32.6298 36.4174 32.2882 36.0968C32.286 36.0946 32.2827 36.0924 32.2805 36.0902L32.2794 36.0891L31.9599 35.7895H31.9312C30.2521 34.2663 28.3287 33.109 26.1853 32.3805L25.9344 32.2965C25.7487 32.2346 25.5619 32.186 25.3762 32.1318C25.2358 32.0909 25.0976 32.0456 24.9572 32.008C24.724 31.9461 24.4886 31.8964 24.2542 31.8455C24.1271 31.8179 24 31.7847 23.8729 31.7604C23.6131 31.7106 23.3533 31.6731 23.0924 31.6366C22.9885 31.6222 22.8846 31.6012 22.7807 31.5891C22.4159 31.5448 22.0512 31.5128 21.6853 31.4951L20.99 31.4719C20.1112 31.442 19.2203 31.4962 18.3459 31.6244L15.8112 31.9859C15.8234 31.9726 15.8333 31.9638 15.8466 31.9538Z" fill="white"/>
</svg>
