<svg width="121" height="36" viewBox="0 0 121 36" fill="none" xmlns="http://www.w3.org/2000/svg"><path d="M3.357 30.19c-.701-1.181-1.067-2.55-1.129-3.92-.06-3.452 1.435-6.159 4.15-8.181 1.495-1.027 2.868-2.209 4.18-3.453 2.014-2.116 2.96-4.605 2.502-7.591-.366-2.551-1.434-4.822-2.685-7.031 0-.031-.091 0-.091 0-.062.715-.092 1.462-.214 2.178a14.754 14.754 0 0 1-.732 3.204 33.681 33.681 0 0 1-4.943 7.87C2.9 15.103 1.496 17 .642 19.272c-1.465 3.858-.366 8.244 2.715 10.92zM15.013 9.037a6.417 6.417 0 0 1-1.099 4.635c-1.464 2.178-3.478 3.733-5.553 5.227-1.586 1.15-2.99 2.426-3.875 4.262-1.617 3.36-.427 7.466 2.746 9.146.885.498 1.892.747 2.869.685-.336-.25-.58-.405-.824-.56-2.563-1.898-3.174-5.57-1.343-8.213 1.038-1.494 2.624-2.365 4.058-3.36a11.964 11.964 0 0 0 3.692-3.765c1.617-2.706.763-6.16-.671-8.057zM22 19.8c-.854-.218-1.678.311-1.922 1.151a7.548 7.548 0 0 1-1.922 4.075c-.885.934-1.923 1.65-3.265 1.65-1.282 0-1.953-1.058-1.465-2.272a5.919 5.919 0 0 1 1.312-1.71 7.434 7.434 0 0 0 1.74-2.49c.06-.155.274-.373.03-.529-.183-.124-.305.125-.427.218-.855.902-1.8 1.68-2.868 2.334a16.089 16.089 0 0 0-2.563 1.71c-1.892 1.463-2.472 4.045-1.434 5.974 1.037 1.866 3.417 2.613 5.614 1.804 1.007-.404 1.952-.995 2.715-1.773 2.35-2.302 3.204-5.196 3.234-8.431-.03-1.244 0-1.244 1.221-1.711zm3 11.434L25.03 12l9.215.032v3.471h-5.858v4.444h5.584v3.47h-5.584l-.03 7.817H25zm10.803.032l.031-14.434h3.265l-.03 14.434h-3.266zm5.279-.002l.03-14.434h2.96v1.298a4.422 4.422 0 0 1 1.281-1.363 3.405 3.405 0 0 1 1.679-.421h.244v3.373c-.183 0-.366 0-.519.032-.183.033-.366.065-.55.13-.335.098-.64.26-.915.487a2.67 2.67 0 0 0-.823 1.394 10.461 10.461 0 0 0-.122 1.687l-.03 7.784-3.235.033zm20.628-5.64l-10.558-.033a3.74 3.74 0 0 0 1.342 2.011 3.701 3.701 0 0 0 2.228.746c.61 0 1.19-.097 1.739-.324a3.374 3.374 0 0 0 1.282-.908h3.6c-.458 1.362-1.343 2.53-2.502 3.276a6.774 6.774 0 0 1-4.028 1.33c-1.892.032-3.722-.779-5.065-2.239-2.777-3.016-2.777-7.849 0-10.865 1.343-1.492 3.204-2.336 5.126-2.27 1.862-.033 3.662.81 4.913 2.27a7.704 7.704 0 0 1 2.014 5.319v.486c-.03.163-.03.26-.061.325l-.03.876zm-10.558-3.082l7.475.033a3.84 3.84 0 0 0-1.403-2.011c-.671-.487-1.465-.779-2.289-.779a3.98 3.98 0 0 0-2.319.746c-.732.454-1.22 1.168-1.464 2.011zm11.076 8.754l7.598-19.233h2.624l7.568 19.266h-3.692l-1.953-4.963h-6.408L65.95 31.33l-3.723-.033zm6.957-8.433h3.876l-1.923-5.838-1.953 5.838zM80.9 35.966l.031-19.266h2.99v1.881a5.108 5.108 0 0 1 1.923-1.752 5.674 5.674 0 0 1 2.502-.583 5.915 5.915 0 0 1 4.913 2.335c.305.324.549.714.793 1.103.244.421.427.843.61 1.33.336.94.488 1.946.488 2.951a8.06 8.06 0 0 1-1.922 5.352c-1.22 1.492-3.02 2.335-4.912 2.303-.794.032-1.587-.162-2.32-.487a5.404 5.404 0 0 1-1.83-1.557v6.39H80.9zm7.08-16.315a3.687 3.687 0 0 0-2.838 1.233 4.3 4.3 0 0 0-1.16 3.049c0 .616.092 1.2.306 1.751.213.552.549 1.038.976 1.46.366.357.763.616 1.22.81.428.195.916.293 1.374.293a3.75 3.75 0 0 0 2.868-1.233c1.526-1.719 1.526-4.379.03-6.098a3.703 3.703 0 0 0-2.776-1.265zM96.463 36l.03-19.266h2.991v1.88a5.114 5.114 0 0 1 1.922-1.75 5.677 5.677 0 0 1 2.502-.584 5.916 5.916 0 0 1 4.913 2.335c.305.324.549.713.793 1.103.245.421.428.843.611 1.33a8.81 8.81 0 0 1 .488 2.951 8.063 8.063 0 0 1-1.922 5.352c-1.221 1.492-3.021 2.335-4.913 2.303-.793.032-1.587-.162-2.319-.487a5.397 5.397 0 0 1-1.83-1.557V36h-3.266zm7.079-16.315a3.685 3.685 0 0 0-2.837 1.233 4.299 4.299 0 0 0-1.16 3.049c0 .616.092 1.2.305 1.751a4.16 4.16 0 0 0 .977 1.46 3.88 3.88 0 0 0 1.22.81c.427.195.916.293 1.373.293a3.753 3.753 0 0 0 2.869-1.233c1.525-1.719 1.525-4.379.03-6.098a3.656 3.656 0 0 0-2.777-1.265zm17.12 1.104h-3.174a1.098 1.098 0 0 0-.427-.779c-.244-.194-.519-.292-.824-.26-.336 0-.641.098-.915.325-.427.39-.489 1.103-.122 1.557.122.13.274.26.427.324.152.065.519.228 1.159.422.702.227 1.404.487 2.045.779.61.291 1.129.746 1.556 1.33a3.96 3.96 0 0 1 .61 2.27c0 1.297-.488 2.562-1.373 3.47-.488.454-1.037.844-1.617 1.103-.61.26-1.251.422-1.892.422a4.768 4.768 0 0 1-3.509-1.395c-.946-.94-1.434-2.238-1.404-3.6h3.326c.061.421.275.843.55 1.135.305.325.732.487 1.159.487.397 0 .763-.13 1.068-.357.305-.227.458-.616.458-1.038-.031-.552-.336-1.038-.824-1.265-.153-.097-.336-.162-.488-.227-.244-.097-.55-.227-1.007-.39-.672-.226-1.129-.389-1.282-.486a4.115 4.115 0 0 1-1.159-.778 3.861 3.861 0 0 1-1.312-3.017 4.214 4.214 0 0 1 1.403-3.243 4.52 4.52 0 0 1 3.204-1.2c1.129 0 2.228.486 3.051 1.33.824.713 1.313 1.88 1.313 3.08z" fill="#F33D66"/></svg>