<svg width="19" height="18" viewBox="0 0 19 18" fill="none" xmlns="http://www.w3.org/2000/svg">
<path d="M7.9367 6.44404C8.0426 7.3833 8.52133 8.22462 9.28465 8.81296C10.0535 9.40555 11.0183 9.67084 12.001 9.56007C12.7063 9.48055 13.3688 9.20974 13.919 8.77623L14.2307 8.46446C13.4541 7.91084 12.6334 7.25635 11.8302 6.36742C11.3812 5.87047 10.9459 5.11515 10.485 4.31549C10.485 4.31546 10.485 4.31546 10.4849 4.31542C10.277 3.95466 10.0599 3.57829 9.82763 3.20459C9.27958 3.34458 8.79902 3.6799 8.48852 4.1527C8.04585 4.82692 7.84495 5.63053 7.9367 6.44404Z" fill="white"/>
<path d="M17.4493 11.0371C16.9115 10.2912 16.0695 9.71898 15.1752 9.11482L14.6936 9.59658C14.6789 9.61124 14.6635 9.62506 14.6473 9.63803C13.926 10.2158 13.0545 10.5764 12.1271 10.681C11.9381 10.7023 11.7496 10.7128 11.5623 10.7128C10.4858 10.7128 9.44943 10.3642 8.59596 9.7064C7.58843 8.92986 6.99153 7.8117 6.81573 6.57057C6.58826 4.96434 7.84275 2.87199 9.15602 2.21225C8.84295 1.79414 8.50069 1.40279 8.11871 1.0685C6.90201 0.00380134 5.499 -0.266911 3.94878 0.263975C3.09223 0.557279 2.34843 1.01912 1.738 1.63664C0.560557 2.82772 -0.0397248 4.46338 0.0020398 6.36682C0.0629421 9.14291 1.51698 12.1138 3.89161 14.3139C5.91185 16.1858 8.32105 17.4436 10.6753 17.8556C11.2277 17.9522 11.7622 18 12.2747 18C14.0226 18 15.513 17.4443 16.5674 16.3777C17.1641 15.7741 17.5975 15.0262 17.8555 14.1548C18.2162 12.9363 18.0834 11.9165 17.4493 11.0371Z" fill="white"/>
</svg>
